<?xml version="1.0" encoding="utf-8"?>
<!DOCTYPE svg PUBLIC "-//W3C//DTD SVG 20010904//EN"
       "http://www.w3.org/TR/2001/REC-SVG-20010904/DTD/svg10.dtd">
<svg xmlns="http://www.w3.org/2000/svg" version="1.0" width="200.000000pt"
     height="197.000000pt" viewBox="0 0 200.000000 197.000000"
     preserveAspectRatio="xMidYMid meet">
  <metadata>Created by potrace 1.10, written by Peter Selinger
  2001-2011</metadata>
  <g transform="translate(0.000000,197.000000) scale(0.100000,-0.100000)"
    fill="#000000" stroke="none" style="fill:#408000">
    <path
          d="M550 1695 l0 -275 -275 0 -275 0 0 -445 0 -445 275 0 275 0 0 -265 0 -265 435 0 435 0 2 263 3 262 288 3 287 2 0 445 0 445 -287 2 -288 3 -3 273 -2 272 -435 0 -435 0 0 -275z m838 -52 l2 -273 280 0 280 0 0 -390 0 -390 -280 0 -280 0 -2 -262 -3 -263 -395 0 -395 0 -3 263 -2 262 -275 0 -275 0 0 390 0 390 275 0 275 0 0 275 0 275 398 -2 397 -3 3 -272z"/>
    <path d="M640 1595 l0 -275 -270 0 -270 0 0 -340 0 -340 268 -2 267 -3 3 -262 2 -263 350 0 350 0 0 265 0 265 275 0 275 0 0 340 0 340 -275 0 -275 0 0 275 0 275 -350 0 -350 0 0 -275z m420 -206 c129 -29 209 -126 218 -265 6 -94 -15 -158 -75 -224 -53 -59 -94 -82 -175 -100 l-58 -13 0 -43 c0 -34 6 -49 30 -72 39 -40 40 -82 3 -112 -30 -23 -34 -62 -11 -107 8 -17 8 -29 0 -45 -6 -13 -12 -33 -14 -46 -2 -12 -7 -21 -13 -20 -5 2 -9 6 -8 10 2 4 -5 4 -15 1 -14 -6 -15 -4 -5 8 6 8 13 31 14 51 3 30 -1 41 -19 54 -27 19 -28 44 -2 77 13 16 20 40 20 69 0 40 -3 47 -37 69 -70 45 -68 115 5 146 36 16 37 16 12 24 -14 4 -37 10 -52 13 -34 8 -84 50 -104 87 l-15 29 96 0 95 0 0 185 c0 207 2 202 -69 165 -43 -22 -81 -64 -81 -90 0 -32 -59 -67 -79 -47 -23 23 -10 53 42 104 59 58 119 93 159 93 16 0 28 4 28 10 0 10 30 7 110 -11z m-210 -605 c0 -19 -46 -76 -77 -95 -71 -44 -181 -21 -223 46 -11 18 -20 37 -20 44 0 8 48 11 160 11 88 0 160 -3 160 -6z m580 0 c0 -18 -40 -68 -73 -91 -74 -51 -186 -29 -229 45 -10 17 -18 35 -18 41 0 8 51 11 160 11 88 0 160 -3 160 -6z"/>
    <path
          d="M970 1170 l0 -189 107 -3 107 -3 -34 -38 c-37 -43 -74 -64 -140 -83 -25 -7 -36 -13 -24 -13 77 -3 187 76 224 161 26 61 24 151 -4 206 -37 71 -119 130 -203 146 l-33 6 0 -190z"/>
  </g>
</svg>
